<svg xmlns="http://www.w3.org/2000/svg" width="564.592" height="225.356" viewBox="0 0 564.592 225.356">
  <g id="Group_135" data-name="Group 135" transform="translate(0.214 0.5)">
    <ellipse id="Ellipse_276" data-name="Ellipse 276" cx="276.968" cy="18.336" rx="276.968" ry="18.336" transform="translate(6.901 188.184)" fill="#f2f2f2"/>
    <path id="Path_746" data-name="Path 746" d="M513.354,324.894c-45.126,0-77.525,28.951-77.525,96.5,0,76.56,32.4,96.826,77.525,96.826s79.456-22.2,79.456-96.826C592.81,341.622,558.48,324.894,513.354,324.894Zm.3,167.918c-31.255,0-47.584-18.337-47.584-71.364,0-46.789,17-71.463,48.252-71.463s48.252,16.207,48.252,71.463c0,51.691-17.666,71.364-48.921,71.364Z" transform="translate(-240.101 -319.104)" fill="#2f2e41"/>
    <path id="Path_747" data-name="Path 747" d="M257.79,471.7H239.132V416.756a11,11,0,0,0-11-11h-4.372a11,11,0,0,0-11,11V471.7H160.128a6.281,6.281,0,0,1-5.554-9.216l55.7-105.421a11,11,0,0,0-5.03-15.09l-3.288-1.553a11,11,0,0,0-14.4,4.762L119.62,472.261a14.92,14.92,0,0,0-1.762,7.034h0a14.92,14.92,0,0,0,14.92,14.92h79.976v34.742a13.189,13.189,0,0,0,13.189,13.189h0a13.189,13.189,0,0,0,13.189-13.189V494.215H257.79a11.259,11.259,0,0,0,11.259-11.259h0A11.259,11.259,0,0,0,257.79,471.7Z" transform="translate(-89.083 -325.975)" fill="#1078ad"/>
    <path id="Path_748" data-name="Path 748" d="M915.786,471.7H897.128V416.756a11,11,0,0,0-11-11h-4.372a11,11,0,0,0-11,11V471.7H818.124a6.281,6.281,0,0,1-5.554-9.216l55.7-105.421a11,11,0,0,0-5.03-15.09l-3.288-1.553a11,11,0,0,0-14.4,4.762L777.617,472.261a14.92,14.92,0,0,0-1.762,7.034h0a14.92,14.92,0,0,0,14.92,14.92h79.976v34.742a13.189,13.189,0,0,0,13.189,13.189h0a13.189,13.189,0,0,0,13.189-13.189V494.215h18.658a11.259,11.259,0,0,0,11.259-11.259h0A11.259,11.259,0,0,0,915.786,471.7Z" transform="translate(-401.593 -325.975)" fill="#1078ad"/>
    <path id="Path_749" data-name="Path 749" d="M267.593,459.444H248.935V404.5a11,11,0,0,0-11-11H233.56a11,11,0,0,0-11,11v54.941H169.93a6.281,6.281,0,0,1-5.554-9.216l55.7-105.421a11,11,0,0,0-5.03-15.09l-3.288-1.553a11,11,0,0,0-14.4,4.762L129.423,460.008a14.92,14.92,0,0,0-1.762,7.034h0a14.92,14.92,0,0,0,14.92,14.92h79.976V516.7a13.189,13.189,0,0,0,13.189,13.189h0A13.189,13.189,0,0,0,248.935,516.7V481.962h18.658A11.259,11.259,0,0,0,278.851,470.7h0a11.259,11.259,0,0,0-11.258-11.259Z" transform="translate(-93.739 -320.156)" fill="none" stroke="#3f3d56" stroke-miterlimit="10" stroke-width="1"/>
    <path id="Path_750" data-name="Path 750" d="M934.165,459.444H915.508V404.5a11,11,0,0,0-11-11h-4.371a11,11,0,0,0-11,11v54.942H836.5a6.281,6.281,0,0,1-5.554-9.216l55.7-105.421a11,11,0,0,0-5.03-15.09l-3.288-1.553a11,11,0,0,0-14.4,4.762L796,460.008a14.921,14.921,0,0,0-1.762,7.034h0a14.92,14.92,0,0,0,14.92,14.92H889.13V516.7a13.189,13.189,0,0,0,13.189,13.189h0A13.189,13.189,0,0,0,915.508,516.7V481.962h18.658A11.259,11.259,0,0,0,945.425,470.7h0a11.259,11.259,0,0,0-11.259-11.259Z" transform="translate(-410.322 -320.156)" fill="none" stroke="#3f3d56" stroke-miterlimit="10" stroke-width="1"/>
    <path id="Path_751" data-name="Path 751" d="M532.959,313.866c-45.126,0-77.525,28.951-77.525,96.5,0,76.56,32.4,96.827,77.525,96.827s79.455-22.2,79.455-96.827C612.415,330.594,578.085,313.866,532.959,313.866Zm.3,167.918c-31.255,0-47.584-18.337-47.584-71.364,0-46.789,17-71.463,48.252-71.463s48.252,16.207,48.252,71.463c0,51.691-17.666,71.364-48.921,71.364Z" transform="translate(-249.412 -313.866)" fill="none" stroke="#3f3d56" stroke-miterlimit="10" stroke-width="1"/>
    <path id="Path_753" data-name="Path 753" d="M613.29,335.893c-.408,1.677-2.167,3.02-4.116,3.958-4.1,1.973-9.149,2.561-14.05,2.759a23.72,23.72,0,0,1-3.751-.069,10.782,10.782,0,0,1-6.432-2.957.883.883,0,0,1,.023-1.493c2.609-2.866,6.963-4.624,11.35-5.889,3.326-.96,9.126-3.445,12.754-3.109C612.58,329.417,613.8,333.776,613.29,335.893Z" transform="translate(-310.73 -321.083)" fill="#3f3d56"/>
    <path id="Path_767" data-name="Path 767" d="M1063.409,558.259a10.928,10.928,0,1,0,1.456-20.958l.273,5.625-2.661-4.82a10.886,10.886,0,0,0-5.609,6.155,10.716,10.716,0,0,0-.629,2.956A10.926,10.926,0,0,0,1063.409,558.259Z" transform="translate(-534.746 -419.87)" fill="#57b894"/>
    <path id="Path_768" data-name="Path 768" d="M1093.138,615c-.939-4.783,3.131-9.024,7.151-11.78s8.719-5.465,10.091-10.143c1.971-6.723-3.9-12.88-8.472-18.189a65.786,65.786,0,0,1-8.676-12.894,17.747,17.747,0,0,1-2.075-5.863c-.36-2.98.6-5.945,1.562-8.788q4.82-14.2,10.306-28.169" transform="translate(-551.307 -411.375)" fill="none" stroke="#3f3d56" stroke-miterlimit="10" stroke-width="1"/>
    <path id="Path_769" data-name="Path 769" d="M1064.259,555.5a10.928,10.928,0,1,0,1.455-20.958l.274,5.625-2.661-4.82a10.886,10.886,0,0,0-5.61,6.155,10.719,10.719,0,0,0-.629,2.956A10.926,10.926,0,0,0,1064.259,555.5Z" transform="translate(-535.15 -418.56)" fill="none" stroke="#3f3d56" stroke-miterlimit="10" stroke-width="1"/>
    <path id="Path_770" data-name="Path 770" d="M1091.856,508.962a10.915,10.915,0,0,1,7.865-6.93l.9,5.347,1.668-5.616a10.926,10.926,0,1,1-10.433,7.2Z" transform="translate(-551.364 -403.106)" fill="#57b894"/>
    <path id="Path_771" data-name="Path 771" d="M1093,505.284a10.915,10.915,0,0,1,7.865-6.929l.9,5.347,1.668-5.616a10.926,10.926,0,1,1-10.433,7.2Z" transform="translate(-551.906 -401.36)" fill="none" stroke="#3f3d56" stroke-miterlimit="10" stroke-width="1"/>
    <path id="Path_772" data-name="Path 772" d="M1101.524,606.311a10.926,10.926,0,0,0,9.671-19.439l-1.282,4.316-.909-5.41-.028-.01a10.927,10.927,0,0,0-7.452,20.544Z" transform="translate(-552.846 -442.691)" fill="#57b894"/>
    <path id="Path_773" data-name="Path 773" d="M1102.524,602.586a10.927,10.927,0,0,0,9.671-19.439l-1.282,4.316-.909-5.41-.028-.011a10.927,10.927,0,1,0-7.453,20.544Z" transform="translate(-553.321 -440.921)" fill="none" stroke="#3f3d56" stroke-miterlimit="10" stroke-width="1"/>
    <path id="Path_774" data-name="Path 774" d="M1086.228,648.461a10.922,10.922,0,1,0,2.106-8.557l4.869,7.328-6.652-3.889A10.826,10.826,0,0,0,1086.228,648.461Z" transform="translate(-548.923 -466.694)" fill="#57b894"/>
    <path id="Path_775" data-name="Path 775" d="M1087.078,645.7a10.922,10.922,0,1,0,2.106-8.557l4.869,7.328-6.652-3.889A10.823,10.823,0,0,0,1087.078,645.7Z" transform="translate(-549.327 -465.384)" fill="none" stroke="#3f3d56" stroke-miterlimit="10" stroke-width="1"/>
    <path id="Path_776" data-name="Path 776" d="M67.784,615.534a7.18,7.18,0,1,0,.956-13.77l.18,3.7-1.748-3.167a7.153,7.153,0,0,0-3.686,4.044,7.04,7.04,0,0,0-.413,1.942A7.178,7.178,0,0,0,67.784,615.534Z" transform="translate(-63.055 -450.526)" fill="#57b894"/>
    <path id="Path_777" data-name="Path 777" d="M87.314,652.813c-.617-3.143,2.057-5.929,4.7-7.74s5.728-3.59,6.63-6.664c1.3-4.417-2.563-8.462-5.566-11.95a43.22,43.22,0,0,1-5.7-8.471,11.662,11.662,0,0,1-1.363-3.852,13.3,13.3,0,0,1,1.026-5.774q3.167-9.332,6.771-18.508" transform="translate(-73.934 -444.944)" fill="none" stroke="#3f3d56" stroke-miterlimit="10" stroke-width="1"/>
    <path id="Path_778" data-name="Path 778" d="M68.347,613.722a7.18,7.18,0,1,0,.956-13.77l.18,3.7-1.748-3.167a7.152,7.152,0,0,0-3.686,4.044,7.041,7.041,0,0,0-.413,1.942A7.178,7.178,0,0,0,68.347,613.722Z" transform="translate(-63.322 -449.666)" fill="none" stroke="#3f3d56" stroke-miterlimit="10" stroke-width="1"/>
    <path id="Path_779" data-name="Path 779" d="M86.477,583.145a7.171,7.171,0,0,1,5.168-4.553l.591,3.513,1.1-3.69a7.179,7.179,0,1,1-6.855,4.729Z" transform="translate(-73.974 -439.512)" fill="#57b894"/>
    <path id="Path_780" data-name="Path 780" d="M87.228,580.729a7.172,7.172,0,0,1,5.168-4.553l.591,3.513,1.1-3.689a7.179,7.179,0,1,1-6.855,4.729Z" transform="translate(-74.331 -438.364)" fill="none" stroke="#3f3d56" stroke-miterlimit="10" stroke-width="1"/>
    <path id="Path_781" data-name="Path 781" d="M92.83,647.105a7.179,7.179,0,0,0,6.354-12.772l-.842,2.835-.6-3.555-.018-.007a7.179,7.179,0,0,0-4.9,13.5Z" transform="translate(-74.948 -465.519)" fill="#57b894"/>
    <path id="Path_782" data-name="Path 782" d="M93.481,644.658a7.179,7.179,0,0,0,6.354-12.772l-.842,2.835-.6-3.555-.018-.007a7.179,7.179,0,1,0-4.9,13.5Z" transform="translate(-75.257 -464.357)" fill="none" stroke="#3f3d56" stroke-miterlimit="10" stroke-width="1"/>
    <path id="Path_783" data-name="Path 783" d="M82.776,674.8a7.176,7.176,0,1,0,1.384-5.622l3.2,4.815-4.371-2.555a7.112,7.112,0,0,0-.212,3.363Z" transform="translate(-72.369 -481.29)" fill="#57b894"/>
    <path id="Path_784" data-name="Path 784" d="M83.339,672.987a7.176,7.176,0,1,0,1.384-5.622l3.2,4.815-4.371-2.556A7.112,7.112,0,0,0,83.339,672.987Z" transform="translate(-72.636 -480.429)" fill="none" stroke="#3f3d56" stroke-miterlimit="10" stroke-width="1"/>
    <circle id="Ellipse_286" data-name="Ellipse 286" cx="2.625" cy="2.625" r="2.625" transform="translate(251.999 77.254)" fill="#fff"/>
    <circle id="Ellipse_287" data-name="Ellipse 287" cx="2.625" cy="2.625" r="2.625" transform="translate(300.83 77.254)" fill="#fff"/>
  </g>
</svg>
